<?xml version="1.0" standalone="no"?>
<!DOCTYPE svg PUBLIC "-//W3C//DTD SVG 20010904//EN"
 "http://www.w3.org/TR/2001/REC-SVG-20010904/DTD/svg10.dtd">
<svg version="1.0" xmlns="http://www.w3.org/2000/svg"
 width="500.000000pt" height="500.000000pt" viewBox="0 0 500.000000 500.000000"
 preserveAspectRatio="xMidYMid meet">

<g transform="translate(0.000000,500.000000) scale(0.100000,-0.100000)"
fill="#000000" stroke="none">
<path d="M2490 2940 c0 -22 5 -40 10 -40 6 0 10 18 10 40 0 22 -4 40 -10 40
-5 0 -10 -18 -10 -40z"/>
<path d="M2400 2944 c-34 -15 -76 -24 -110 -24 l-55 -1 -50 -75 c-27 -42 -67
-91 -88 -110 l-37 -34 29 0 c35 0 173 42 246 75 27 12 67 38 88 56 32 29 39
42 44 87 3 28 2 51 -3 51 -5 -1 -34 -12 -64 -25z"/>
<path d="M2533 2919 c7 -58 20 -76 86 -118 52 -34 244 -101 288 -101 l29 0
-51 54 c-27 29 -66 78 -85 108 l-35 55 -70 5 c-44 3 -86 13 -112 26 -23 12
-45 22 -49 22 -4 0 -4 -23 -1 -51z"/>
<path d="M2364 2766 c-11 -8 -58 -26 -105 -41 -134 -42 -139 -45 -89 -38 56 7
194 59 210 78 16 19 10 19 -16 1z"/>
<path d="M2625 2764 c31 -25 113 -59 178 -73 90 -20 77 -8 -25 23 -50 15 -110
36 -132 47 -31 15 -36 16 -21 3z"/>
<path d="M2396 2735 c-22 -20 -62 -46 -90 -60 l-51 -25 45 6 c25 4 52 10 60
14 13 7 87 101 78 100 -2 -1 -21 -16 -42 -35z"/>
<path d="M2590 2727 c40 -57 50 -63 110 -71 l45 -6 -45 21 c-25 11 -67 39 -95
62 l-50 42 35 -48z"/>
<path d="M2540 2754 c1 -21 47 -89 63 -92 14 -3 9 8 -19 45 -45 59 -44 58 -44
47z"/>
<path d="M2410 2699 c-25 -32 -29 -40 -14 -37 17 3 61 64 52 73 -3 3 -19 -13
-38 -36z"/>
<path d="M2448 2690 c-9 -17 -13 -30 -9 -30 14 0 33 28 29 44 -2 11 -8 7 -20
-14z"/>
<path d="M2530 2697 c0 -18 5 -27 15 -27 13 0 14 4 4 23 -17 33 -19 33 -19 4z"/>
<path d="M2308 2705 c-2 -3 -38 -14 -79 -24 -41 -11 -62 -20 -48 -20 28 -1
118 26 134 40 5 5 7 9 4 9 -3 0 -8 -2 -11 -5z"/>
<path d="M2719 2688 c25 -11 63 -22 85 -24 l41 -3 -41 8 c-22 5 -58 17 -79 25
-54 23 -58 18 -6 -6z"/>
<path d="M1833 2443 c15 -4 17 -18 17 -106 0 -104 -4 -120 -30 -130 -8 -3 7
-6 34 -6 44 -1 48 0 31 13 -15 11 -19 30 -23 100 -3 48 -1 91 4 96 6 6 26 -31
49 -89 22 -54 44 -100 48 -102 5 -2 27 39 49 91 22 52 44 99 49 105 5 5 9 -32
9 -93 0 -97 -1 -103 -22 -112 -17 -7 -8 -9 37 -8 33 0 52 2 43 5 -16 4 -18 18
-18 118 0 100 2 114 18 118 9 3 -2 5 -26 6 -41 1 -44 -1 -58 -36 -9 -21 -27
-63 -41 -93 l-25 -55 -36 92 -37 93 -45 -1 c-25 -1 -37 -3 -27 -6z"/>
<path d="M2740 2441 c-21 -6 -22 -8 -7 -14 12 -4 17 -17 17 -42 0 -32 -2 -35
-30 -35 -66 0 -105 -85 -60 -130 22 -22 42 -25 70 -10 10 6 21 6 24 1 3 -4 17
-6 32 -3 22 4 24 6 10 14 -13 7 -16 28 -16 118 0 61 -3 110 -7 109 -5 -1 -19
-4 -33 -8z m-2 -113 c19 -19 15 -97 -4 -105 -42 -16 -77 51 -50 92 18 27 36
31 54 13z"/>
<path d="M2213 2338 c-48 -23 -51 -103 -4 -127 50 -27 111 8 111 64 0 24 -7
39 -26 54 -29 23 -48 25 -81 9z m55 -10 c25 -25 10 -118 -19 -118 -18 0 -39
34 -39 65 0 31 21 65 39 65 4 0 12 -5 19 -12z"/>
<path d="M2377 2339 c-13 -8 -15 -14 -7 -29 16 -31 12 -88 -7 -99 -14 -8 -6
-10 32 -10 28 1 42 3 32 6 -15 4 -17 13 -15 56 3 44 6 52 26 57 13 3 23 9 23
15 1 16 -18 17 -34 0 -14 -13 -17 -13 -24 -1 -6 11 -13 12 -26 5z"/>
<path d="M2512 2334 c-12 -8 -22 -22 -22 -30 0 -21 18 -17 25 6 3 11 15 20 25
20 15 0 18 -8 18 -52 1 -58 19 -85 49 -73 12 5 14 9 6 12 -8 3 -13 23 -13 49
0 25 -5 54 -10 65 -13 23 -47 25 -78 3z"/>
<path d="M2855 2325 c-14 -13 -25 -36 -25 -50 0 -33 42 -75 75 -75 33 0 75 42
75 75 0 33 -42 75 -75 75 -14 0 -37 -11 -50 -25z m69 -1 c37 -37 7 -126 -35
-104 -33 18 -22 120 12 120 4 0 15 -7 23 -16z"/>
<path d="M3031 2336 c-15 -9 -20 -16 -12 -20 15 -10 14 -103 -1 -109 -7 -3 5
-6 27 -6 30 -1 36 2 27 11 -16 16 -16 90 0 106 17 17 45 15 52 -4 10 -27 7
-89 -6 -102 -9 -9 -3 -12 27 -11 22 0 34 3 28 6 -8 3 -13 25 -13 58 0 73 -25
99 -72 74 -14 -7 -23 -8 -27 -1 -4 7 -14 6 -30 -2z"/>
<path d="M2512 2264 c-40 -28 -20 -77 25 -60 14 6 14 8 -3 20 -18 14 -18 15 0
35 22 25 10 28 -22 5z"/>
</g>
</svg>
